# xmcd
#
# Track frame offsets:
# 150
# 15110
# 32635
# 48470
# 64035
# 81285
# 95875
# 113880
# 128960
# 142705
# 158485
# 173060
#
# Disc length: 2488 seconds
#
#
# Revision: 0
# Processed by: cddbd v1.5.1PL0 Copyright (c) Steve Scherf et al.
# Submitted via: FreeRIP 2.92 
#
DISCID=8f09b60c
DTITLE=Gino and Geno (www.estilocountry.net) - A Galera do Chapéu
DYEAR=2005
DGENRE=Country
TTITLE0=01 - Agito ae
TTITLE1=02 - Acidente de Amor
TTITLE2=03 - Bebo pra Carai
TTITLE3=04 - Cara Boa
TTITLE4=05 - O Gaviao
TTITLE5=06 - Galera do Chapeu
TTITLE6=07 - A Mulher e a Bebida
TTITLE7=08 - Que Amor e Esse
TTITLE8=09 - Que Bixo que e
TTITLE9=10 - Saudade Cigana
TTITLE10=11 - To Ficando com ELa
TTITLE11=12 - Uma Noticia para te Dar
EXTD=YEAR: 2005
EXTT0=
EXTT1=
EXTT2=
EXTT3=
EXTT4=
EXTT5=
EXTT6=
EXTT7=
EXTT8=
EXTT9=
EXTT10=
EXTT11=
PLAYORDER=
